inDegrees=yes
name=ik_S57_A13_T01
DataType=double
version=3
OpenSimVersion=4.3-2021-08-27-4bc7ad9
endheader
time	pelvis_tilt	pelvis_list	pelvis_rotation	pelvis_tx	pelvis_ty	pelvis_tz	hip_flexion_r	hip_adduction_r	hip_rotation_r	knee_angle_r	knee_angle_r_beta	ankle_angle_r	subtalar_angle_r	mtp_angle_r	hip_flexion_l	hip_adduction_l	hip_rotation_l	knee_angle_l	knee_angle_l_beta	ankle_angle_l	subtalar_angle_l	mtp_angle_l	lumbar_extension	lumbar_bending	lumbar_rotation	arm_flex_r	arm_add_r	arm_rot_r	elbow_flex_r	pro_sup_r	wrist_flex_r	wrist_dev_r	arm_flex_l	arm_add_l	arm_rot_l	elbow_flex_l	pro_sup_l	wrist_flex_l	wrist_dev_l
7.459999999999929	2.359808106446334	0.8641681784584774	17.9208757533344	0	0.9399999999999999	0	24.90304371808572	-8.591212968017803	-7.511699082422048	29.0416897353882	0.5068731062251648	0	0	0	24.90304371808572	-8.591212968017803	-7.511699082422048	29.0416897353882	0.5068731062251648	0	0	0	1.976967015389357	1.342971786037658	9.318316382127511	64.5269130118614	10.20500090781929	-3.456092297991903	43.41971955359469	128.1504545489891	0	0	78.04356655917989	-34.57403160695129	62.79248489468903	15.88112486908822	90.66676089066468	0	0
7.479999999999928	2.399099520139476	0.8402681863354104	17.97316576074471	0	0.9399999999999999	0	24.91268955323432	-8.593395551121446	-7.514181029873402	29.05094400599044	0.5070346237170444	0	0	0	24.91268955323432	-8.593395551121446	-7.514181029873402	29.05094400599044	0.5070346237170444	0	0	0	2.008536430981462	1.306761359029406	9.283172161201055	64.93072063490524	10.61202635876385	-3.110422042379776	42.61483709569941	130.324879165576	0	0	77.83575609002411	-34.51544387870226	62.68513393133572	17.18845845866043	90.85693835796202	0	0
7.499999999999928	2.426416923479511	0.8177028740677048	17.94590253091714	0	0.9399999999999999	0	24.92545674886211	-8.596285885172597	-7.517467842239082	29.06317517117773	0.507248097820918	0	0	0	24.92545674886211	-8.596285885172597	-7.517467842239082	29.06317517117773	0.507248097820918	0	0	0	2.026862761813859	1.279122311497139	9.349117936618196	65.02279757923137	10.78739033823525	-2.93567253723006	42.35487373846515	132.3632525778411	0	0	77.56916170190219	-34.43436797108628	62.52882059988238	18.55415794590762	91.11309074613523	0	0
7.519999999999928	2.427672820398652	0.8115239921903338	17.59410165311776	0	0.9399999999999999	0	24.93935071527768	-8.599424348437948	-7.521040864192718	29.07649345502811	0.5074805457248223	0	0	0	24.93935071527768	-8.599424348437948	-7.521040864192718	29.07649345502811	0.5074805457248223	0	0	0	2.027122536899558	1.283817571819085	9.602779634999928	65.09016787318423	11.00046368382912	-3.13147716328766	42.51731475000663	136.6745441842939	0	0	77.30182194695405	-34.40131906820548	62.21435914957429	19.86231918969674	91.80931169323597	0	0
7.539999999999927	2.439066264226646	0.818047682550238	17.37402697998252	0	0.9399999999999999	0	24.95057150732437	-8.601942564669502	-7.523915530751297	29.08729919814094	0.5076691415202659	0	0	0	24.95057150732437	-8.601942564669502	-7.523915530751297	29.08729919814094	0.5076691415202659	0	0	0	2.038512172856071	1.291154509279058	9.73274571772709	65.11954752087473	11.33188473916704	-3.417157477796974	42.60536117973869	138.4932750904129	0	0	77.00112691368817	-34.30689266425507	61.87839684838699	20.45780666599298	92.4396713708782	0	0
7.559999999999927	2.462045354679177	0.8123907297390685	17.1341293167516	0	0.9399999999999999	0	24.96325739855531	-8.604798214576942	-7.527172290955454	29.09947124491704	0.5078815838132157	0	0	0	24.96325739855531	-8.604798214576942	-7.527172290955454	29.09947124491704	0.5078815838132157	0	0	0	2.056031384455101	1.287523579886485	9.959403627693597	65.15817160871663	11.57921702594357	-3.356305059134802	42.62976866563487	139.4067141086589	0	0	76.68397106661493	-34.13233542623381	61.40879122879033	23.46216076025151	94.22986378751317	0	0
7.579999999999926	2.462961095620974	0.815053273635206	17.22447526699289	0	0.9399999999999999	0	24.97480816728449	-8.60738288581687	-7.530127094058789	29.11060557548583	0.5080759145416465	0	0	0	24.97480816728449	-8.60738288581687	-7.530127094058789	29.11060557548583	0.5080759145416465	0	0	0	2.059342632409283	1.286394579570246	9.880076426972145	65.11125848787815	11.76611241387003	-2.858891442510417	42.75285620607473	139.4395407198423	0	0	76.60742943367947	-34.10251747706932	61.24756905214278	24.87893547849421	95.32712545385041	0	0
